<svg xmlns="http://www.w3.org/2000/svg" width="20" height="20" viewBox="0 0 20 20"><defs><style>.a{fill:#447cc3;}.b{fill:#fff;}</style></defs><path class="a" d="M87.98,10a10,10,0,1,1-10-10,10,10,0,0,1,10,10" transform="translate(-67.98)"/><g transform="translate(5.224 5.224)"><path class="b" d="M83.3,8.358H78.924a2.589,2.589,0,0,0-2.586,2.586v4.381a2.589,2.589,0,0,0,2.586,2.586H83.3a2.589,2.589,0,0,0,2.586-2.586V10.944A2.589,2.589,0,0,0,83.3,8.358Zm2.026,6.967A2.028,2.028,0,0,1,83.3,17.351H78.924A2.028,2.028,0,0,1,76.9,15.325V10.944a2.028,2.028,0,0,1,2.026-2.026H83.3a2.028,2.028,0,0,1,2.026,2.026Zm0,0" transform="translate(-76.338 -8.358)"/><path class="b" d="M82.413,11.821a2.612,2.612,0,1,0,2.612,2.612,2.615,2.615,0,0,0-2.612-2.612Zm0,4.664a2.052,2.052,0,1,1,2.052-2.052,2.054,2.054,0,0,1-2.052,2.052Zm0,0" transform="translate(-77.637 -9.657)"/><path class="b" d="M87.8,10.337a.772.772,0,1,0,.772.772.773.773,0,0,0-.772-.772Zm0,.983" transform="translate(-80.345 -9.1)"/></g></svg>