<svg xmlns="http://www.w3.org/2000/svg" width="19.994" height="20" viewBox="0 0 19.994 20"><defs><style>.a{fill:#447cc3;}.b{fill:none;}.c{fill:#fff;}</style></defs><path class="a" d="M19.994,10a10,10,0,1,1-10-10,10,10,0,0,1,10,10"/><rect class="b" width="10.806" height="7.669" transform="translate(4.594 6.169)"/><path d="M21.56,13.78" transform="translate(-8.085 -5.168)"/><path class="c" d="M17.551,12.147c0,.081.006.163.006.25A5.415,5.415,0,0,1,9.22,16.96a3.654,3.654,0,0,0,.456.025,3.863,3.863,0,0,0,2.369-.812,1.92,1.92,0,0,1-1.781-1.325,1.644,1.644,0,0,0,.356.031,1.858,1.858,0,0,0,.5-.069,1.911,1.911,0,0,1-1.531-1.869v-.025a1.912,1.912,0,0,0,.862.238,1.909,1.909,0,0,1-.594-2.544A5.424,5.424,0,0,0,13.783,12.6a2,2,0,0,1-.05-.437,1.906,1.906,0,0,1,3.294-1.306,3.842,3.842,0,0,0,1.212-.462,1.93,1.93,0,0,1-.837,1.056,3.727,3.727,0,0,0,1.094-.3,3.761,3.761,0,0,1-.944.994Z" transform="translate(-3.457 -3.847)"/></svg>