<svg xmlns="http://www.w3.org/2000/svg" width="13.011" height="15.236" viewBox="0 0 13.011 15.236"><defs><style>.a{fill:#e69109;}</style></defs><g transform="translate(-283 -178.764)"><g transform="translate(-16785.936 -593.901)"><path class="a" d="M1179.877,5497.8a4.717,4.717,0,0,0-4.691,4.731.677.677,0,0,0,.672.68h8.037a.677.677,0,0,0,.672-.68A4.717,4.717,0,0,0,1179.877,5497.8Zm0-1.462a2.267,2.267,0,1,0-2.246-2.267A2.259,2.259,0,0,0,1179.877,5496.333Z" transform="translate(15893.75 -4715.306)"/></g><path class="a" d="M6308.163,3177.845h-1.306v-1.306a.551.551,0,1,0-1.1,0v1.306h-1.306a.551.551,0,1,0,0,1.1h1.306v1.306a.551.551,0,1,0,1.1,0v-1.306h1.306a.551.551,0,0,0,0-1.1" transform="translate(-1919.16 -6524.527) rotate(45)"/></g></svg>