<svg xmlns="http://www.w3.org/2000/svg" width="20" height="20" viewBox="0 0 20 20"><defs><style>.a{fill:#447cc3;}.b{fill:#fff;}.c{fill:none;}</style></defs><path class="a" d="M121.5,10a10,10,0,1,1-10-10,10,10,0,0,1,10,10" transform="translate(-101.5)"/><path class="b" d="M119.244,10.57c-.388-.462-1.113-.65-2.488-.65h-4.994c-1.406,0-2.137.2-2.531.694a3.535,3.535,0,0,0-.381,2.175v1.875c0,1.9.45,2.869,2.906,2.869h4.994a3.155,3.155,0,0,0,2.281-.575,3.026,3.026,0,0,0,.625-2.294V12.789a3.4,3.4,0,0,0-.412-2.219Zm-3.45,3.406-2.269,1.188a.365.365,0,0,1-.162.037.377.377,0,0,1-.181-.05.344.344,0,0,1-.169-.3V12.489a.344.344,0,0,1,.169-.3.354.354,0,0,1,.344-.013l2.269,1.175a.358.358,0,0,1,.188.306.349.349,0,0,1-.187.319Z" transform="translate(-104.256 -3.72)"/><rect class="c" width="10.812" height="7.669" transform="translate(4.594 6.162)"/></svg>