<svg xmlns="http://www.w3.org/2000/svg" viewBox="0 0 274 274"><defs><style>.cls-1{fill:#edd412;}.cls-2{fill:#1659c1;}.cls-3{fill:#9dbff5;}.cls-4{fill:#f75f5f;}.cls-5{fill:#4386ef;}.cls-6{fill:#afa9a9;}.cls-7{fill:none;stroke:#fff;stroke-linecap:round;stroke-miterlimit:10;stroke-width:5px;}</style></defs><g id="Layer_2" data-name="Layer 2"><g id="Layer_1-2" data-name="Layer 1"><path class="cls-1" d="M231.41,191.47A109.34,109.34,0,0,1,172.66,240l8.44,26.72A137.44,137.44,0,0,0,255.38,206Z"/><path class="cls-2" d="M244.87,121.31A109.65,109.65,0,0,1,246,137a108.44,108.44,0,0,1-14.59,54.47l24,14.51A136.28,136.28,0,0,0,274,137a138.88,138.88,0,0,0-1.67-21.44Z"/><path class="cls-3" d="M28,137A109,109,0,0,1,137,28h.62l-.46-28H137A137,137,0,0,0,18.85,206.37l23.94-14.53A108.45,108.45,0,0,1,28,137Z"/><path class="cls-4" d="M172.66,240A109.12,109.12,0,0,1,42.79,191.84L18.85,206.37A137.18,137.18,0,0,0,181.1,266.75Z"/><path class="cls-5" d="M137.16,0l.46,28a109,109,0,0,1,107.25,93.3l27.46-5.75A137,137,0,0,0,137.16,0Z"/><circle class="cls-6" cx="137" cy="137" r="36"/><path class="cls-7" d="M129,142h8.93a1.86,1.86,0,0,0,1.86-1.83L140,125.5"/></g></g></svg>