<svg xmlns="http://www.w3.org/2000/svg" viewBox="0 0 436.58 210.29"><defs><style>.cls-1,.cls-2,.cls-3{fill:none;stroke-miterlimit:10;}.cls-1,.cls-3{stroke:#000;}.cls-2{stroke:blue;}.cls-2,.cls-3{stroke-width:2px;}</style></defs><g id="Layer_2" data-name="Layer 2"><g id="Layer_1-2" data-name="Layer 1"><line class="cls-1" x1="33.94" y1="3.24" x2="436.58" y2="3.24"/><line class="cls-1" x1="33.94" y1="20.24" x2="436.58" y2="20.24"/><line class="cls-1" x1="33.94" y1="37.24" x2="436.58" y2="37.24"/><line class="cls-1" x1="33.94" y1="55.24" x2="436.58" y2="55.24"/><line class="cls-1" x1="33.94" y1="73.24" x2="436.58" y2="73.24"/><line class="cls-1" x1="33.94" y1="91.24" x2="436.58" y2="91.24"/><line class="cls-1" x1="33.94" y1="107.24" x2="436.58" y2="107.24"/><line class="cls-1" x1="33.94" y1="125.24" x2="436.58" y2="125.24"/><line class="cls-1" x1="33.94" y1="143.24" x2="436.58" y2="143.24"/><line class="cls-1" x1="33.94" y1="161.24" x2="436.58" y2="161.24"/><polyline class="cls-2" points="33.94 179.24 294.28 179.24 436.58 179.24"/><line class="cls-2" x1="293.94" y1="157.24" x2="294.28" y2="179.24"/><line class="cls-2" x1="324.24" y1="157.24" x2="324.24" y2="179.24"/><path d="M22.5,187.3c1.12,0,2.06.7,2.06,2.88s-.94,2.94-2.06,2.94-2.05-.71-2.05-2.94S21.39,187.3,22.5,187.3Zm0,4.88c.93,0,.93-1.36.93-2s0-2-.93-2-.91,1.37-.91,2S21.59,192.18,22.5,192.18Z"/><path d="M27,187.3c1.11,0,2.06.7,2.06,2.88s-1,2.94-2.06,2.94-2.05-.71-2.05-2.94S25.84,187.3,27,187.3Zm0,4.88c.92,0,.92-1.36.92-2s0-2-.92-2-.92,1.37-.92,2S26,192.18,27,192.18Z"/><path d="M30.92,190.18H29.67v-1.24h1.25Zm-1.25,1.59h1.25V193H29.67Z"/><path d="M33.23,189.67c.48,0,1.19,0,1.19-.69a.75.75,0,0,0-.79-.75.87.87,0,0,0-.87,1H31.68a1.87,1.87,0,0,1,1.94-1.93,1.73,1.73,0,0,1,1.88,1.55,1.11,1.11,0,0,1-.79,1.14v0a1.25,1.25,0,0,1,1,1.27,1.91,1.91,0,0,1-2.08,1.84,1.89,1.89,0,0,1-2.08-2h1.08c0,.61.32,1.1,1,1.1a.86.86,0,0,0,.91-.88c0-.84-.74-.83-1.29-.83Z"/><path d="M38.07,187.3c1.12,0,2.06.7,2.06,2.88s-.94,2.94-2.06,2.94-2-.71-2-2.94S37,187.3,38.07,187.3Zm0,4.88c.92,0,.92-1.36.92-2s0-2-.92-2-.92,1.37-.92,2S37.15,192.18,38.07,192.18Z"/><path d="M95.5,187.3c1.12,0,2.06.7,2.06,2.88s-.94,2.94-2.06,2.94-2-.71-2-2.94S94.39,187.3,95.5,187.3Zm0,4.88c.93,0,.93-1.36.93-2s0-2-.93-2-.91,1.37-.91,2S94.59,192.18,95.5,192.18Z"/><path d="M99.55,189.67c.49,0,1.2,0,1.2-.69a.75.75,0,0,0-.8-.75.87.87,0,0,0-.86,1H98A1.86,1.86,0,0,1,100,187.3a1.72,1.72,0,0,1,1.87,1.55A1.1,1.1,0,0,1,101,190v0a1.24,1.24,0,0,1,1,1.27,2.08,2.08,0,0,1-4.15-.2H99c0,.61.33,1.1,1,1.1a.86.86,0,0,0,.91-.88c0-.84-.74-.83-1.3-.83Z"/><path d="M103.92,190.18h-1.25v-1.24h1.25Zm-1.25,1.59h1.25V193h-1.25Z"/><path d="M106.23,189.67c.48,0,1.19,0,1.19-.69a.75.75,0,0,0-.79-.75.87.87,0,0,0-.87,1h-1.08a1.87,1.87,0,0,1,1.94-1.93,1.73,1.73,0,0,1,1.88,1.55,1.11,1.11,0,0,1-.79,1.14v0a1.25,1.25,0,0,1,1,1.27,2.09,2.09,0,0,1-4.16-.2h1.08c0,.61.32,1.1,1,1.1a.86.86,0,0,0,.91-.88c0-.84-.74-.83-1.29-.83Z"/><path d="M111.07,187.3c1.12,0,2.06.7,2.06,2.88s-.94,2.94-2.06,2.94-2-.71-2-2.94S110,187.3,111.07,187.3Zm0,4.88c.92,0,.92-1.36.92-2s0-2-.92-2-.92,1.37-.92,2S110.15,192.18,111.07,192.18Z"/><path d="M175.5,187.3c1.12,0,2.06.7,2.06,2.88s-.94,2.94-2.06,2.94-2.05-.71-2.05-2.94S174.39,187.3,175.5,187.3Zm0,4.88c.93,0,.93-1.36.93-2s0-2-.93-2-.91,1.37-.91,2S174.59,192.18,175.5,192.18Z"/><path d="M180.83,188.85a.8.8,0,0,0-.75-.7c-.82,0-1,1.08-1.07,1.71h0a1.42,1.42,0,0,1,1.26-.62,1.8,1.8,0,0,1,1.29.57,2,2,0,0,1,.43,1.25,2,2,0,0,1-2,2.05c-1.7,0-2.15-1.48-2.15-2.9s.61-2.92,2.2-2.92a1.71,1.71,0,0,1,1.81,1.55Zm-1.72,2.29a1,1,0,0,0,.91,1,.94.94,0,0,0,.85-1c0-.53-.27-1.06-.85-1.06A.93.93,0,0,0,179.11,191.14Z"/><path d="M183.92,190.18h-1.25v-1.24h1.25Zm-1.25,1.59h1.25V193h-1.25Z"/><path d="M186.23,189.67c.48,0,1.19,0,1.19-.69a.75.75,0,0,0-.79-.75.87.87,0,0,0-.87,1h-1.08a1.87,1.87,0,0,1,1.94-1.93,1.73,1.73,0,0,1,1.88,1.55,1.11,1.11,0,0,1-.79,1.14v0a1.25,1.25,0,0,1,1,1.27,2.09,2.09,0,0,1-4.16-.2h1.08c0,.61.32,1.1,1,1.1a.86.86,0,0,0,.91-.88c0-.84-.74-.83-1.29-.83Z"/><path d="M191.07,187.3c1.12,0,2.06.7,2.06,2.88s-.94,2.94-2.06,2.94-2-.71-2-2.94S190,187.3,191.07,187.3Zm0,4.88c.92,0,.92-1.36.92-2s0-2-.92-2-.92,1.37-.92,2S190.15,192.18,191.07,192.18Z"/><path d="M256.5,187.3c1.12,0,2.06.7,2.06,2.88s-.94,2.94-2.06,2.94-2.05-.71-2.05-2.94S255.39,187.3,256.5,187.3Zm0,4.88c.93,0,.93-1.36.93-2s0-2-.93-2-.91,1.37-.91,2S255.59,192.18,256.5,192.18Z"/><path d="M260.07,191.57a.81.81,0,0,0,.76.69c.82,0,1-1.08,1.07-1.7l0,0a1.43,1.43,0,0,1-1.26.63,1.8,1.8,0,0,1-1.29-.58,1.9,1.9,0,0,1-.43-1.25,1.94,1.94,0,0,1,2-2c1.69,0,2.15,1.48,2.15,2.89s-.61,2.93-2.2,2.93a1.72,1.72,0,0,1-1.82-1.55Zm1.72-2.3a1,1,0,0,0-.9-1,1,1,0,0,0-.86,1,.93.93,0,0,0,.86,1.05A.92.92,0,0,0,261.79,189.27Z"/><path d="M264.92,190.18h-1.25v-1.24h1.25Zm-1.25,1.59h1.25V193h-1.25Z"/><path d="M267.23,189.67c.48,0,1.19,0,1.19-.69a.75.75,0,0,0-.79-.75.87.87,0,0,0-.87,1h-1.08a1.87,1.87,0,0,1,1.94-1.93,1.73,1.73,0,0,1,1.88,1.55,1.11,1.11,0,0,1-.79,1.14v0a1.24,1.24,0,0,1,1,1.27,2.08,2.08,0,0,1-4.15-.2h1.08c0,.61.32,1.1,1,1.1a.86.86,0,0,0,.91-.88c0-.84-.74-.83-1.29-.83Z"/><path d="M272.07,187.3c1.12,0,2.06.7,2.06,2.88s-.94,2.94-2.06,2.94-2.05-.71-2.05-2.94S271,187.3,272.07,187.3Zm0,4.88c.92,0,.92-1.36.92-2s0-2-.92-2-.92,1.37-.92,2S271.15,192.18,272.07,192.18Z"/><path d="M339.42,193h-1.14v-3.63h-1.41v-.86c.8,0,1.52-.25,1.64-1.11h.91Z"/><path d="M342.55,189.67c.49,0,1.2,0,1.2-.69a.75.75,0,0,0-.8-.75.87.87,0,0,0-.86,1H341A1.86,1.86,0,0,1,343,187.3a1.72,1.72,0,0,1,1.87,1.55A1.1,1.1,0,0,1,344,190v0a1.24,1.24,0,0,1,1,1.27,2.09,2.09,0,0,1-4.16-.2H342c0,.61.33,1.1,1,1.1a.86.86,0,0,0,.91-.88c0-.84-.75-.83-1.3-.83Z"/><path d="M346.92,190.18h-1.25v-1.24h1.25Zm-1.25,1.59h1.25V193h-1.25Z"/><path d="M349.23,189.67c.48,0,1.19,0,1.19-.69a.75.75,0,0,0-.79-.75.87.87,0,0,0-.87,1h-1.08a1.87,1.87,0,0,1,1.94-1.93,1.73,1.73,0,0,1,1.88,1.55,1.11,1.11,0,0,1-.79,1.14v0a1.24,1.24,0,0,1,1,1.27,2.08,2.08,0,0,1-4.15-.2h1.08c0,.61.32,1.1,1,1.1a.86.86,0,0,0,.91-.88c0-.84-.74-.83-1.29-.83Z"/><path d="M354.07,187.3c1.12,0,2.06.7,2.06,2.88s-.94,2.94-2.06,2.94-2.05-.71-2.05-2.94S353,187.3,354.07,187.3Zm0,4.88c.92,0,.92-1.36.92-2s0-2-.92-2-.92,1.37-.92,2S353.15,192.18,354.07,192.18Z"/><line class="cls-3" x1="33.94" y1="182.24" x2="33.94" y2="178.24"/><line class="cls-3" x1="103.94" y1="182.24" x2="103.94" y2="178.24"/><line class="cls-3" x1="184.94" y1="182.24" x2="184.94" y2="178.24"/><line class="cls-3" x1="263.94" y1="182.24" x2="263.94" y2="178.24"/><line class="cls-3" x1="325.94" y1="182.24" x2="325.94" y2="178.24"/><path d="M20.73,174c1.12,0,2.07.7,2.07,2.89s-.95,2.93-2.07,2.93-2-.7-2-2.93S19.63,174,20.73,174Zm0,4.89c.93,0,.93-1.37.93-2s0-1.95-.93-1.95-.91,1.36-.91,1.95S19.82,178.89,20.73,178.89Z"/><path d="M21.65,163.71H20.52v-3.63H19.11v-.86c.79,0,1.52-.25,1.64-1.11h.9Z"/><path d="M18.81,142.26a2,2,0,0,1,2-2.26,1.78,1.78,0,0,1,1.92,1.75,2,2,0,0,1-1,1.7,6.23,6.23,0,0,0-1.61,1.28H22.8v1H18.69c0-1.3.79-1.85,1.76-2.5.5-.34,1.17-.68,1.18-1.37a.8.8,0,0,0-.84-.86c-.67,0-.89.69-.89,1.28Z"/><path d="M20.34,124.38c.49,0,1.19-.06,1.19-.7a.74.74,0,0,0-.79-.74c-.57,0-.87.42-.86,1H18.8A1.86,1.86,0,0,1,20.73,122a1.72,1.72,0,0,1,1.88,1.55,1.1,1.1,0,0,1-.78,1.14v0a1.26,1.26,0,0,1,1,1.27,1.9,1.9,0,0,1-2.08,1.84,1.9,1.9,0,0,1-2.08-2h1.08c0,.61.33,1.11,1,1.11a.87.87,0,0,0,.92-.88c0-.85-.75-.84-1.3-.84Z"/><path d="M21,108.41H18.65v-1l2.43-3.26h1v3.37h.75v.93h-.75v1.3H21Zm0-2.87h0l-1.45,1.94H21Z"/><path d="M22.52,89.05H20.2L20,90.32h0a1.41,1.41,0,0,1,1.09-.43,1.74,1.74,0,0,1,1.73,1.91,2,2,0,0,1-2.08,2,1.87,1.87,0,0,1-2.08-1.77H19.8a.9.9,0,0,0,.92.84,1,1,0,0,0,1-1.08,1,1,0,0,0-1-1,.93.93,0,0,0-.86.45h-1l.55-3.1h3.13Z"/><path d="M21.62,72.55a.8.8,0,0,0-.75-.69c-.83,0-1,1.08-1.07,1.7h0A1.42,1.42,0,0,1,21.08,73a1.74,1.74,0,0,1,1.28.58,1.88,1.88,0,0,1,.44,1.24,2,2,0,0,1-2,2c-1.7,0-2.15-1.48-2.15-2.89S19.29,71,20.88,71a1.72,1.72,0,0,1,1.82,1.55Zm-1.72,2.3a1,1,0,0,0,.9,1,.94.94,0,0,0,.86-1c0-.53-.27-1-.86-1A.92.92,0,0,0,19.9,74.85Z"/><path d="M22.65,53.09a6.84,6.84,0,0,0-1.83,4.62H19.6a8.2,8.2,0,0,1,1.88-4.54H18.83V52.11h3.82Z"/><path d="M20.75,35a1.67,1.67,0,0,1,1.87,1.5,1.18,1.18,0,0,1-.82,1.18h0a1.32,1.32,0,0,1,1.05,1.37,1.88,1.88,0,0,1-2.09,1.76c-1.08,0-2.13-.54-2.13-1.75a1.34,1.34,0,0,1,1.06-1.38h0a1.11,1.11,0,0,1-.83-1.15A1.71,1.71,0,0,1,20.75,35Zm0,5a.93.93,0,0,0,1-.95.91.91,0,0,0-1-.89.88.88,0,0,0-1,.88A.94.94,0,0,0,20.76,40Zm0-2.6a.75.75,0,0,0,.84-.74.74.74,0,0,0-.84-.77.79.79,0,0,0-.86.77A.76.76,0,0,0,20.75,37.37Z"/><path d="M19.86,21.27a.8.8,0,0,0,.75.7c.83,0,1-1.08,1.07-1.71h0a1.42,1.42,0,0,1-1.27.62,1.74,1.74,0,0,1-1.28-.58,1.88,1.88,0,0,1-.43-1.24A1.94,1.94,0,0,1,20.64,17c1.7,0,2.16,1.48,2.16,2.89s-.61,2.93-2.2,2.93a1.72,1.72,0,0,1-1.82-1.55ZM21.58,19a1,1,0,0,0-.9-1,.94.94,0,0,0-.86,1c0,.53.27,1.05.86,1.05A.92.92,0,0,0,21.58,19Z"/><path d="M16.65,5.71H15.52V2.08H14.11V1.22c.79,0,1.52-.25,1.64-1.11h.9Z"/><path d="M20.18,0c1.12,0,2.06.7,2.06,2.89s-.94,2.93-2.06,2.93-2.05-.7-2.05-2.93S19.08,0,20.18,0Zm0,4.89c.93,0,.93-1.37.93-2s0-1.95-.93-1.95-.91,1.36-.91,2S19.27,4.89,20.18,4.89Z"/><path d="M200.52,204.18h-1.71v-1.05h4.68v1.05h-1.71v4.66h-1.26Z"/><path d="M205.2,204.06h-1.14v-.93h1.14Zm-1.14.64h1.14v4.14h-1.14Z"/><path d="M206.12,204.7h1.08v.56h0a1.51,1.51,0,0,1,1.27-.67,1.21,1.21,0,0,1,1.2.69,1.5,1.5,0,0,1,1.25-.69,1.34,1.34,0,0,1,1.51,1.48v2.77h-1.13v-2.35c0-.55-.05-1-.7-1s-.76.52-.76,1v2.31h-1.14v-2.32c0-.48,0-1-.68-1-.23,0-.77.14-.77.95v2.4h-1.14Z"/><path d="M214.28,207.05c0,.72.38,1,1,1a1,1,0,0,0,.9-.53h1a1.87,1.87,0,0,1-1.94,1.39,2,2,0,0,1-2.11-2.18,2.08,2.08,0,1,1,4.12.28Zm1.84-.72c-.1-.58-.35-.88-.9-.88a.89.89,0,0,0-.94.88Z"/><path d="M222.15,203a7.82,7.82,0,0,0-.87,3.62,8,8,0,0,0,.86,3.68h-.94a7,7,0,0,1-1.06-3.6,6.91,6.91,0,0,1,1.06-3.7Z"/><path d="M222.64,203.13h1.26v2.19h2.31v-2.19h1.26v5.71h-1.26v-2.47H223.9v2.47h-1.26Z"/><path d="M228.45,204.7h1.08v.77h0a1.47,1.47,0,0,1,1.32-.88,1.09,1.09,0,0,1,.25,0v1.06a1.78,1.78,0,0,0-.41,0c-.83,0-1.12.6-1.12,1.32v1.87h-1.14Z"/><path d="M232.44,207.49c0,.5.43.7.87.7s.75-.13.75-.53-.47-.46-1.29-.64c-.65-.14-1.31-.37-1.31-1.1,0-1.06.91-1.33,1.8-1.33s1.73.31,1.82,1.32H234c0-.44-.36-.56-.77-.56-.26,0-.63.05-.63.38s.63.47,1.28.62,1.31.39,1.31,1.16c0,1.09-.94,1.44-1.88,1.44s-1.9-.36-1.95-1.46Z"/><path d="M235.37,210.29a7.75,7.75,0,0,0,.87-3.61,8.09,8.09,0,0,0-.86-3.69h.94a7.11,7.11,0,0,1,1.06,3.61,6.85,6.85,0,0,1-1.06,3.69Z"/><path d="M0,135.28V131H1.06v3H2.28v-2.77h1V134h1.4V131H5.71v4.33Z"/><path d="M1.58,130.19v-1.07h.55v0a1.51,1.51,0,0,1-.67-1.26,1.23,1.23,0,0,1,.69-1.21,1.5,1.5,0,0,1-.69-1.25,1.34,1.34,0,0,1,1.48-1.51H5.71V125H3.37c-.56,0-1,0-1,.69s.53.76,1.05.76h2.3v1.14H3.39c-.48,0-1,0-1,.69,0,.22.14.76,1,.76h2.4v1.14Z"/><path d="M1.58,123v-1.08H2.1a1.38,1.38,0,0,1-.64-1.23c0-1.3,1-1.88,2.23-1.88a1.9,1.9,0,0,1,2.13,1.81,1.45,1.45,0,0,1-.62,1.24v0h2V123Zm2.07-3.07c-.65,0-1.33.27-1.33,1s.66,1,1.33,1,1.32-.26,1.32-1S4.33,119.9,3.65,119.9Z"/><path d="M0,118.05v-1.13H5.71v1.13Z"/><path d="M1.46,114a2,2,0,0,1,2.19-2.14,2.14,2.14,0,1,1,0,4.28A2,2,0,0,1,1.46,114ZM5,114c0-.77-.67-1-1.32-1s-1.33.23-1.33,1,.66,1,1.33,1S5,114.78,5,114Z"/><path d="M6.23,109.09a1.3,1.3,0,0,1,.93,1.43,5.32,5.32,0,0,1,0,.69H6.19a4.78,4.78,0,0,0,0-.66.54.54,0,0,0-.78-.39l-3.87,1.45V110.4l2.83-.94v0l-2.83-.9v-1.17Z"/><path d="M3.92,106.05c.72,0,1-.39,1-1a.94.94,0,0,0-.54-.9v-1a1.84,1.84,0,0,1,1.39,1.93,2,2,0,0,1-2.17,2.11,2.08,2.08,0,1,1,.27-4.12ZM3.2,104.2c-.58.1-.88.35-.88.9a.9.9,0,0,0,.88,1Z"/><path d="M3.92,101.45c.72,0,1-.38,1-1a.93.93,0,0,0-.54-.9v-1a1.86,1.86,0,0,1,1.39,1.94,2,2,0,0,1-2.17,2.11,2.08,2.08,0,1,1,.27-4.12ZM3.2,99.61c-.58.1-.88.35-.88.9a.89.89,0,0,0,.88.94Z"/><path d="M4.37,96.92c.49,0,.69-.43.69-.87s-.13-.75-.53-.75-.46.47-.64,1.29c-.14.65-.37,1.31-1.1,1.31-1,0-1.33-.91-1.33-1.8s.31-1.73,1.32-1.82v1.08c-.44,0-.56.37-.56.77s0,.64.39.64.46-.64.61-1.29.39-1.31,1.16-1.31c1.09,0,1.44.94,1.44,1.88S5.46,98,4.37,98Z"/><path d="M0,91.16V88.58a1.76,1.76,0,0,1,1.83-2,1.76,1.76,0,0,1,1.83,2V89.9H5.71v1.26ZM2.69,89.9v-1c0-.59-.13-1.11-.86-1.11S1,88.34,1,88.93v1Z"/><path d="M1.58,85.94V84.86h.76a1.47,1.47,0,0,1-.88-1.32,1,1,0,0,1,0-.25H2.56a2.37,2.37,0,0,0,0,.41c0,.83.6,1.12,1.33,1.12H5.71v1.13Z"/><path d="M3.92,82c.72,0,1-.39,1-1a.93.93,0,0,0-.54-.89v-1a1.85,1.85,0,0,1,1.39,1.93,2,2,0,0,1-2.17,2.11,2.07,2.07,0,1,1,.27-4.11ZM3.2,80.19c-.58.1-.88.35-.88.9a.9.9,0,0,0,.88,1Z"/><path d="M4.37,77.5c.49,0,.69-.42.69-.87s-.13-.74-.53-.74-.46.47-.64,1.28c-.14.66-.37,1.31-1.1,1.31-1,0-1.33-.91-1.33-1.79S1.77,75,2.78,74.86v1.08c-.44,0-.56.37-.56.78,0,.25,0,.63.39.63s.46-.64.61-1.29.39-1.31,1.16-1.31c1.09,0,1.44.94,1.44,1.89s-.36,1.89-1.45,1.94Z"/><path d="M3.92,73.15c.72,0,1-.38,1-1a.93.93,0,0,0-.54-.89v-1a1.85,1.85,0,0,1,1.39,1.93,2,2,0,0,1-2.17,2.12,2.08,2.08,0,1,1,.27-4.12ZM3.2,71.3c-.58.11-.88.35-.88.91a.89.89,0,0,0,.88.94Z"/><path d="M1.58,69.49V68.41h.57v0a1.48,1.48,0,0,1-.69-1.26c0-1.21.68-1.52,1.71-1.52H5.71v1.14H3.37c-.68,0-1,.2-1,.73s.34.88,1.18.88H5.71v1.13Z"/><path d="M1.58,63.31v-.83h.75v.83H4.38c.39,0,.48-.1.48-.48a2.07,2.07,0,0,0,0-.35h.89a4.59,4.59,0,0,1,0,.66c0,.7-.16,1.31-1,1.31H2.33v.68H1.58v-.68H.34V63.31Z"/></g></g></svg>